<?xml version="1.0" encoding="UTF-8" standalone="no"?>
<!-- Created with Inkscape (http://www.inkscape.org/) -->

<svg
   xmlns:dc="http://purl.org/dc/elements/1.1/"
   xmlns:cc="http://creativecommons.org/ns#"
   xmlns:rdf="http://www.w3.org/1999/02/22-rdf-syntax-ns#"
   xmlns:svg="http://www.w3.org/2000/svg"
   xmlns="http://www.w3.org/2000/svg"
   xmlns:sodipodi="http://sodipodi.sourceforge.net/DTD/sodipodi-0.dtd"
   xmlns:inkscape="http://www.inkscape.org/namespaces/inkscape"
   width="1024"
   height="1024"
   viewBox="0 0 270.93333 270.93334"
   version="1.1"
   id="svg8"
   inkscape:version="0.92.4 (5da689c313, 2019-01-14)"
   sodipodi:docname="Logo.svg"
   inkscape:export-filename="D:\code\ameow\Images\Logo.png"
   inkscape:export-xdpi="96"
   inkscape:export-ydpi="96">
  <defs
     id="defs2" />
  <sodipodi:namedview
     id="base"
     pagecolor="#ffffff"
     bordercolor="#666666"
     borderopacity="1.0"
     inkscape:pageopacity="0.0"
     inkscape:pageshadow="2"
     inkscape:zoom="0.24748737"
     inkscape:cx="312.76431"
     inkscape:cy="42.170482"
     inkscape:document-units="mm"
     inkscape:current-layer="layer1"
     showgrid="false"
     units="px"
     fit-margin-top="0"
     fit-margin-left="0"
     fit-margin-right="0"
     fit-margin-bottom="0"
     inkscape:window-width="1920"
     inkscape:window-height="1017"
     inkscape:window-x="-8"
     inkscape:window-y="-8"
     inkscape:window-maximized="1" />
  <metadata
     id="metadata5">
    <rdf:RDF>
      <cc:Work
         rdf:about="">
        <dc:format>image/svg+xml</dc:format>
        <dc:type
           rdf:resource="http://purl.org/dc/dcmitype/StillImage" />
        <dc:title></dc:title>
      </cc:Work>
    </rdf:RDF>
  </metadata>
  <g
     inkscape:label="Layer 1"
     inkscape:groupmode="layer"
     id="layer1"
     transform="translate(478.36666,48.167858)">
    <rect
       style="fill:#ffc0c8;fill-opacity:1;stroke:none;stroke-width:1.05833328;stroke-linejoin:round;stroke-miterlimit:4;stroke-dasharray:none;stroke-opacity:1;paint-order:stroke fill markers"
       id="rect857"
       width="270.93332"
       height="270.93335"
       x="-478.36661"
       y="-48.167713" />
    <g
       transform="matrix(4.0000002,0,0,4.0000002,-478.36666,-965.23457)"
       id="layer1-3"
       inkscape:label="Layer 1"
       style="stroke-width:0.24999999">
      <circle
         r="33.866665"
         cy="263.13333"
         cx="33.866665"
         id="path4518"
         style="fill:#ffc0c8;fill-opacity:1;stroke:none;stroke-width:0.26458329;stroke-linejoin:round;stroke-miterlimit:4;stroke-dasharray:none;stroke-opacity:1;paint-order:stroke fill markers" />
      <g
         id="g4623"
         style="stroke-width:0.24999999">
        <g
           id="g4528"
           transform="translate(-0.81747911,-1.629291)"
           style="fill:#000000;stroke-width:0.24999999">
          <path
             sodipodi:nodetypes="cssscc"
             inkscape:connector-curvature="0"
             id="path4522"
             d="m 33.32024,244.61582 c 0,0 -8.3984,-0.30569 -13.255605,9.06612 -3.725819,7.18884 -3.446571,14.07158 -5.512385,18.67356 -2.065813,4.602 3.098719,6.7775 7.660723,6.7775 4.562005,0 11.275899,-4.602 11.275899,-4.602 z"
             style="fill:#000000;fill-opacity:1;stroke:none;stroke-width:0.06614583px;stroke-linecap:butt;stroke-linejoin:miter;stroke-opacity:1" />
          <path
             style="fill:#000000;fill-opacity:1;stroke:none;stroke-width:0.06614583px;stroke-linecap:butt;stroke-linejoin:miter;stroke-opacity:1"
             d="m 36.048048,244.61582 c 0,0 8.3984,-0.30569 13.255605,9.06612 3.725819,7.18884 3.446571,14.07158 5.512385,18.67356 2.065813,4.602 -3.098719,6.7775 -7.660723,6.7775 -4.562005,0 -11.275899,-4.602 -11.275899,-4.602 z"
             id="path4524"
             inkscape:connector-curvature="0"
             sodipodi:nodetypes="cssscc" />
        </g>
        <ellipse
           style="fill:#fffbeb;fill-opacity:1;stroke:none;stroke-width:0.26458329;stroke-linejoin:round;stroke-miterlimit:4;stroke-dasharray:none;stroke-opacity:1;paint-order:stroke fill markers"
           id="path4520"
           cx="33.866665"
           cy="259.82385"
           rx="14.499372"
           ry="16.83798" />
        <path
           style="fill:#000000;fill-opacity:1;stroke:none;stroke-width:0.06614583px;stroke-linecap:butt;stroke-linejoin:miter;stroke-opacity:1"
           d="m 35.791834,245.32513 c 0,0 -1.58117,4.98112 -10.431043,7.02911 -5.907242,1.36701 -6.268375,8.01167 -6.268375,8.01167 0,0 -2.844541,-7.59921 6.099519,-14.98575 6.30474,-5.20684 10.599899,-0.055 10.599899,-0.055 z"
           id="path4530"
           inkscape:connector-curvature="0"
           sodipodi:nodetypes="cscscc" />
        <path
           style="fill:#000000;fill-opacity:1;stroke:none;stroke-width:0.06614583px;stroke-linecap:butt;stroke-linejoin:miter;stroke-opacity:1"
           d="m 30.459806,243.68811 c 0.457317,0.50813 4.804638,9.67423 9.556822,9.08707 6.523177,-0.80597 8.900911,6.70287 8.900911,6.70287 0,0 0.485718,-10.6536 -9.117583,-15.49166 -5.035065,-2.53662 -9.34015,-0.29828 -9.34015,-0.29828 z"
           id="path4532"
           inkscape:connector-curvature="0"
           sodipodi:nodetypes="cscsc" />
        <g
           id="g4605"
           style="stroke-width:0.24999999">
          <g
             transform="translate(0.07119146,6.2284331)"
             id="g4549"
             style="stroke-width:0.24999999">
            <path
               inkscape:connector-curvature="0"
               style="fill:#000000;fill-opacity:1;stroke:none;stroke-width:0.26458329;stroke-linejoin:round;stroke-miterlimit:4;stroke-dasharray:none;stroke-opacity:1;paint-order:stroke fill markers"
               d="m 27.598595,251.82238 c -1.698707,0 -3.075781,1.37707 -3.075781,3.07578 0.001,0.10135 0.0071,0.20259 0.01809,0.30334 0.166183,-1.56375 1.485142,-2.2358 3.057695,-2.23625 1.580046,0.002 2.901867,0.68561 3.057694,2.25795 0.01176,-0.10795 0.0178,-0.21645 0.01809,-0.32504 0,-1.69871 -1.377074,-3.07578 -3.075781,-3.07578 z"
               id="path4534"
               sodipodi:nodetypes="scccccss" />
            <path
               id="path4539"
               d="m 39.992344,251.82238 c -1.698707,0 -3.075782,1.37707 -3.075782,3.07578 10e-4,0.10135 0.0071,0.20259 0.01809,0.30334 0.166183,-1.56375 1.485142,-2.2358 3.057695,-2.23625 1.580046,0.002 2.901867,0.68561 3.057694,2.25795 0.01176,-0.10795 0.0178,-0.21645 0.01809,-0.32504 0,-1.69871 -1.377074,-3.07578 -3.075781,-3.07578 z"
               style="fill:#000000;fill-opacity:1;stroke:none;stroke-width:0.26458329;stroke-linejoin:round;stroke-miterlimit:4;stroke-dasharray:none;stroke-opacity:1;paint-order:stroke fill markers"
               inkscape:connector-curvature="0"
               sodipodi:nodetypes="scccccss" />
          </g>
          <g
             transform="translate(-0.02314011)"
             id="g4573"
             style="stroke-width:0.24999999">
            <path
               style="fill:#000000;fill-opacity:1;stroke:none;stroke-width:0.26458329;stroke-linejoin:round;stroke-miterlimit:4;stroke-dasharray:none;stroke-opacity:1;paint-order:stroke fill markers"
               d="m 25.926225,255.84037 c -1.977383,0 -3.569304,1.59192 -3.569304,3.5693 v 1.74844 c 0,1.97738 1.591921,3.5693 3.569304,3.5693 h 3.20513 c 1.977383,0 3.569304,-1.59192 3.569304,-3.5693 v -1.74844 c 0,-1.97738 -1.591921,-3.5693 -3.569304,-3.5693 z m 0.267597,0.74202 h 2.669936 c 1.647285,0 2.973748,1.32607 2.973748,2.97336 v 1.45629 c 0,1.64728 -1.326463,2.97335 -2.973748,2.97335 h -2.669936 c -1.647286,0 -2.973347,-1.32607 -2.973347,-2.97335 v -1.45629 c 0,-1.64729 1.326061,-2.97336 2.973347,-2.97336 z"
               id="rect4562"
               inkscape:connector-curvature="0" />
            <path
               inkscape:connector-curvature="0"
               id="path4569"
               d="m 38.648255,255.84037 c -1.977383,0 -3.569304,1.59192 -3.569304,3.5693 v 1.74844 c 0,1.97738 1.591921,3.5693 3.569304,3.5693 h 3.20513 c 1.977383,0 3.569304,-1.59192 3.569304,-3.5693 v -1.74844 c 0,-1.97738 -1.591921,-3.5693 -3.569304,-3.5693 z m 0.267597,0.74202 h 2.669936 c 1.647285,0 2.973748,1.32607 2.973748,2.97336 v 1.45629 c 0,1.64728 -1.326463,2.97335 -2.973748,2.97335 h -2.669936 c -1.647286,0 -2.973347,-1.32607 -2.973347,-2.97335 v -1.45629 c 0,-1.64729 1.326061,-2.97336 2.973347,-2.97336 z"
               style="fill:#000000;fill-opacity:1;stroke:none;stroke-width:0.26458329;stroke-linejoin:round;stroke-miterlimit:4;stroke-dasharray:none;stroke-opacity:1;paint-order:stroke fill markers" />
          </g>
          <rect
             y="258.63541"
             x="32.510677"
             height="0.89296871"
             width="2.811198"
             id="rect4584"
             style="fill:#000000;fill-opacity:1;stroke:none;stroke-width:0.26458329;stroke-linejoin:round;stroke-miterlimit:4;stroke-dasharray:none;stroke-opacity:1;paint-order:stroke fill markers" />
          <rect
             style="fill:#000000;fill-opacity:1;stroke:none;stroke-width:0.26458329;stroke-linejoin:round;stroke-miterlimit:4;stroke-dasharray:none;stroke-opacity:1;paint-order:stroke fill markers"
             id="rect4586"
             width="3.8033855"
             height="0.89296871"
             x="18.983852"
             y="258.63541" />
          <rect
             y="258.63541"
             x="44.946091"
             height="0.89296871"
             width="3.8033855"
             id="rect4588"
             style="fill:#000000;fill-opacity:1;stroke:none;stroke-width:0.26458329;stroke-linejoin:round;stroke-miterlimit:4;stroke-dasharray:none;stroke-opacity:1;paint-order:stroke fill markers" />
        </g>
      </g>
    </g>
  </g>
</svg>
